<svg width="500" height="500" viewBox="0 0 500 500" fill="none" xmlns="http://www.w3.org/2000/svg">
<path d="M121.333 75.6666L250 204.333L378 76.3333C380.827 73.3239 384.233 70.9164 388.014 69.2554C391.794 67.5943 395.871 66.7138 400 66.6666C408.84 66.6666 417.319 70.1785 423.57 76.4297C429.821 82.6809 433.333 91.1594 433.333 100C433.411 104.087 432.653 108.146 431.105 111.929C429.557 115.712 427.253 119.139 424.333 122L294.666 250L424.333 379.667C429.827 385.041 433.048 392.32 433.333 400C433.333 408.84 429.821 417.319 423.57 423.57C417.319 429.821 408.84 433.333 400 433.333C395.752 433.51 391.513 432.8 387.554 431.251C383.594 429.702 380 427.346 377 424.333L250 295.667L121.667 424C118.85 426.909 115.485 429.232 111.767 430.833C108.048 432.435 104.049 433.285 99.9999 433.333C91.1593 433.333 82.6809 429.821 76.4297 423.57C70.1784 417.319 66.6666 408.84 66.6666 400C66.5888 395.913 67.3471 391.854 68.8947 388.071C70.4424 384.287 72.7468 380.86 75.6666 378L205.333 250L75.6666 120.333C70.1727 114.959 66.9512 107.68 66.6666 100C66.6666 91.1594 70.1784 82.6809 76.4297 76.4297C82.6809 70.1785 91.1593 66.6666 99.9999 66.6666C108 66.7666 115.667 70 121.333 75.6666Z" fill="white"/>
</svg>
